<svg xmlns="http://www.w3.org/2000/svg" viewBox="0 0 512 512">
<defs>
  <linearGradient id="silver" x1="0" y1="0" x2="1" y2="1">
    <stop offset="0" stop-color="#ffffff"/><stop offset="0.42" stop-color="#cbd6e2"/><stop offset="1" stop-color="#66788b"/>
  </linearGradient>
  <linearGradient id="blue" x1="0" y1="0" x2="1" y2="1">
    <stop offset="0" stop-color="#67c7ff"/><stop offset="0.5" stop-color="#238dff"/><stop offset="1" stop-color="#0069e8"/>
  </linearGradient>
  <filter id="glow" x="-30%" y="-30%" width="160%" height="160%">
    <feGaussianBlur stdDeviation="5" result="b"/><feMerge><feMergeNode in="b"/><feMergeNode in="SourceGraphic"/></feMerge>
  </filter>
</defs>
<!-- partial progress ring -->
<path d="M112 366 A190 190 0 0 1 371 91" fill="none" stroke="url(#silver)" stroke-width="25" stroke-linecap="round"/>
<path d="M371 91 A190 190 0 0 1 419 302" fill="none" stroke="url(#blue)" stroke-width="25" stroke-linecap="round"/>
<path d="M405 353 A190 190 0 0 1 158 421" fill="none" stroke="url(#blue)" stroke-width="22" stroke-linecap="round" opacity=".95"/>
<!-- simplified muscular torso -->
<ellipse cx="256" cy="139" rx="43" ry="55" fill="url(#silver)"/>
<path d="M220 184 C224 207 211 219 185 230 C151 244 141 274 144 320 L149 369 C172 360 190 350 207 337 L213 286 C225 307 240 317 256 317 C272 317 287 307 299 286 L305 337 C322 350 340 360 363 369 L368 320 C371 274 361 244 327 230 C301 219 288 207 292 184 C279 202 269 212 256 218 C243 212 233 202 220 184 Z" fill="url(#silver)"/>
<path d="M205 239 C224 226 240 225 256 243 C272 225 288 226 307 239" fill="none" stroke="#73869a" stroke-width="8" stroke-linecap="round" opacity=".7"/>
<path d="M256 244 L256 319" fill="none" stroke="#5f7184" stroke-width="7" stroke-linecap="round" opacity=".6"/>
<!-- rising progress line -->
<polyline points="94,391 183,325 229,354 294,290 340,321 414,245" fill="none" stroke="url(#blue)" stroke-width="24" stroke-linecap="round" stroke-linejoin="round" filter="url(#glow)"/>
<path d="M394 235 L431 226 L422 263 Z" fill="#238dff" filter="url(#glow)"/>
</svg>